<svg version="1.1" xmlns="http://www.w3.org/2000/svg" xmlns:xlink="http://www.w3.org/1999/xlink" width="47.99716" height="47.99716"><defs><linearGradient x1="14.22989" y1="14.22989" x2="54.98331" y2="54.98331" gradientUnits="userSpaceOnUse" id="color-1"><stop offset="0" stop-color="#000000" stop-opacity="0.3"></stop><stop offset="1" stop-color="#000000" stop-opacity="0"></stop></linearGradient><filter id="dropshadow-base"><feColorMatrix type="matrix" values="0 0 0 0 0  0 0 0 0 0  0 0 0 0 0  0 0 0 .8 0"></feColorMatrix> <feOffset dx="0" dy="1"></feOffset> <feGaussianBlur stdDeviation="1"></feGaussianBlur> <feComposite in="SourceGraphic"></feComposite></filter><filter id="dropshadow-banner" x="-10%" y="-10%" width="120%" height="130%"><feColorMatrix type="matrix" values="0 0 0 0 0  0 0 0 0 0  0 0 0 0 0  0 0 0 .4 0"></feColorMatrix> <feOffset dx="0" dy="1"></feOffset> <feGaussianBlur stdDeviation="0.5"></feGaussianBlur> <feComposite in="SourceGraphic"></feComposite></filter></defs><g transform="translate(-0.00142,-0.00142)"><g fill="none" fill-rule="nonzero" stroke="none" stroke-width="none" stroke-linecap="butt" stroke-linejoin="miter" stroke-miterlimit="10" stroke-dasharray="" stroke-dashoffset="0" font-family="none" font-weight="none" font-size="none" text-anchor="none" style="mix-blend-mode: normal"><path d="M2,24c0,-12.15026 9.84974,-22 22,-22c12.15026,0 22,9.84974 22,22c0,12.15026 -9.84974,22 -22,22c-12.15026,0 -22,-9.84974 -22,-22z" id="base 1 5" fill-opacity="0.68" fill="#000000" stroke-width="1"></path><path d="M14.22989,15.95798l1.72809,-1.72809l8.04397,8.04397l5.5487,-5.54648l-2.49748,-2.49748h6.71695l12.10722,12.10722c-1.032,9.77326 -8.46318,17.63821 -18.02552,19.32683l-13.62192,-13.62192l8.04362,-8.04042z" fill="url(#color-1)" stroke-width="1"></path><path d="M22.27191,20.54382l-6.31393,-6.31393l-1.72809,1.72809l6.31393,6.31393zM27.05316,14.22989l2.49748,2.49748l-15.32075,15.31465l1.72809,1.72809l15.32075,-15.32075l2.49138,2.49748v-6.71695zM27.45618,25.72809l-1.72809,1.72809l3.82256,3.82256l-2.49748,2.49138h6.71695v-6.71695l-2.49748,2.49748z" fill="none" stroke-width="0"></path><path d="M20.54382,22.27191l-6.31393,-6.31393l1.72809,-1.72809l6.31393,6.31393zM33.77011,14.22989v6.71695l-2.49138,-2.49748l-15.32075,15.32075l-1.72809,-1.72809l15.32075,-15.31465l-2.49748,-2.49748zM31.27263,29.55064l2.49748,-2.49748v6.71695h-6.71695l2.49748,-2.49138l-3.82256,-3.82256l1.72809,-1.72809z" fill="#53c34e" stroke-width="0"></path><path d="M2,24c0,-12.15026 9.84974,-22 22,-22c12.15026,0 22,9.84974 22,22c0,12.15026 -9.84974,22 -22,22c-12.15026,0 -22,-9.84974 -22,-22z" id="base 1 1 1" fill="none" stroke-width="1"></path><g fill="#000000" stroke-width="1" font-family="Roboto, sans-serif" font-weight="normal" font-size="14" text-anchor="start"></g><rect x="2" y="2" width="44" height="22" fill="none" stroke-width="1"></rect><path d="M2,24v-22h44v22z" fill="none" stroke-width="1"></path><path d="M2,24v-22h44v22z" fill="none" stroke-width="1"></path><path d="M2,24v-22h44v22z" fill="none" stroke-width="1"></path><path d="M2,24v-22h44v22z" fill="none" stroke-width="1"></path></g></g></svg>